<svg viewBox="0 0 800 480" xmlns="http://www.w3.org/2000/svg" font-family="-apple-system, BlinkMacSystemFont, 'Segoe UI', Helvetica, Arial, sans-serif">
<rect width="800" height="480" fill="#FFFFFF"/>
<rect x="84" y="32" width="36" height="4" fill="#F26522"/>
<text x="84" y="64" font-size="22" font-weight="700" fill="#111827" letter-spacing="-0.4">How cimd scales</text>
<text x="84" y="84" font-size="13" fill="#374151">CGMES → JIIDM throughput across 6 dataset sizes, best of 3 runs each.</text>
<line x1="84" y1="100" x2="84" y2="400" stroke="#111827" stroke-width="1.2"/>
<line x1="84" y1="400" x2="760" y2="400" stroke="#111827" stroke-width="1.2"/>
<text x="72" y="404.0" text-anchor="end" font-size="11" fill="#374151">0</text>
<line x1="84" y1="325.0" x2="760" y2="325.0" stroke="#F3F4F6" stroke-width="1" stroke-dasharray="2 3"/>
<text x="72" y="329.0" text-anchor="end" font-size="11" fill="#374151">100</text>
<line x1="84" y1="250.0" x2="760" y2="250.0" stroke="#F3F4F6" stroke-width="1" stroke-dasharray="2 3"/>
<text x="72" y="254.0" text-anchor="end" font-size="11" fill="#374151">200</text>
<line x1="84" y1="175.0" x2="760" y2="175.0" stroke="#F3F4F6" stroke-width="1" stroke-dasharray="2 3"/>
<text x="72" y="179.0" text-anchor="end" font-size="11" fill="#374151">300</text>
<line x1="84" y1="100.0" x2="760" y2="100.0" stroke="#F3F4F6" stroke-width="1" stroke-dasharray="2 3"/>
<text x="72" y="104.0" text-anchor="end" font-size="11" fill="#374151">400</text>
<line x1="84.0" y1="400" x2="84.0" y2="405" stroke="#111827" stroke-width="1"/>
<text x="84.0" y="422" text-anchor="middle" font-size="11" fill="#374151">1 MB</text>
<line x1="253.0" y1="400" x2="253.0" y2="405" stroke="#111827" stroke-width="1"/>
<text x="253.0" y="422" text-anchor="middle" font-size="11" fill="#374151">10 MB</text>
<line x1="422.0" y1="400" x2="422.0" y2="405" stroke="#111827" stroke-width="1"/>
<text x="422.0" y="422" text-anchor="middle" font-size="11" fill="#374151">100 MB</text>
<line x1="591.0" y1="400" x2="591.0" y2="405" stroke="#111827" stroke-width="1"/>
<text x="591.0" y="422" text-anchor="middle" font-size="11" fill="#374151">1 GB</text>
<line x1="760.0" y1="400" x2="760.0" y2="405" stroke="#111827" stroke-width="1"/>
<text x="760.0" y="422" text-anchor="middle" font-size="11" fill="#374151">10 GB</text>
<text x="422" y="452" text-anchor="middle" font-size="12" fill="#111827" font-weight="500">CGMES EQ size · log scale</text>
<text x="22" y="250" text-anchor="middle" font-size="12" fill="#111827" font-weight="500" transform="rotate(-90 22 250)">throughput (MB/s)</text>
<polygon points="247.3,209.4 331.4,148.1 421.4,154.6 502.6,174.7 591.0,195.4 671.7,218.8 671.7,400.0 247.3,400.0" fill="#F26522" fill-opacity="0.10" stroke="none"/>
<polyline points="247.3,209.4 331.4,148.1 421.4,154.6 502.6,174.7 591.0,195.4 671.7,218.8" fill="none" stroke="#F26522" stroke-width="2.8" stroke-linejoin="round" stroke-linecap="round"/>
<rect x="216.4" y="179.4" width="61.8" height="20" rx="10" fill="#111827"/>
<text x="247.3" y="192.4" text-anchor="middle" font-size="11" font-weight="600" fill="#FFFFFF">254 MB/s</text>
<circle cx="247.3" cy="209.4" r="5.5" fill="#FFFFFF" stroke="#F26522" stroke-width="2.6"/>
<rect x="300.5" y="118.1" width="61.8" height="20" rx="10" fill="#111827"/>
<text x="331.4" y="131.1" text-anchor="middle" font-size="11" font-weight="600" fill="#FFFFFF">336 MB/s</text>
<circle cx="331.4" cy="148.1" r="5.5" fill="#FFFFFF" stroke="#F26522" stroke-width="2.6"/>
<rect x="390.5" y="124.6" width="61.8" height="20" rx="10" fill="#111827"/>
<text x="421.4" y="137.6" text-anchor="middle" font-size="11" font-weight="600" fill="#FFFFFF">327 MB/s</text>
<circle cx="421.4" cy="154.6" r="5.5" fill="#FFFFFF" stroke="#F26522" stroke-width="2.6"/>
<rect x="471.7" y="144.7" width="61.8" height="20" rx="10" fill="#111827"/>
<text x="502.6" y="157.7" text-anchor="middle" font-size="11" font-weight="600" fill="#FFFFFF">300 MB/s</text>
<circle cx="502.6" cy="174.7" r="5.5" fill="#FFFFFF" stroke="#F26522" stroke-width="2.6"/>
<rect x="560.1" y="165.4" width="61.8" height="20" rx="10" fill="#111827"/>
<text x="591.0" y="178.4" text-anchor="middle" font-size="11" font-weight="600" fill="#FFFFFF">273 MB/s</text>
<circle cx="591.0" cy="195.4" r="5.5" fill="#FFFFFF" stroke="#F26522" stroke-width="2.6"/>
<rect x="640.8" y="188.8" width="61.8" height="20" rx="10" fill="#111827"/>
<text x="671.7" y="201.8" text-anchor="middle" font-size="11" font-weight="600" fill="#FFFFFF">242 MB/s</text>
<circle cx="671.7" cy="218.8" r="5.5" fill="#FFFFFF" stroke="#F26522" stroke-width="2.6"/>
<text x="84" y="470" font-size="10" fill="#6B7280" letter-spacing="0.3">cimd · ReleaseFast</text>
</svg>
